<?xml version="1.0" encoding="UTF-8"?>
<svg width="87px" height="87px" viewBox="0 0 87 87" version="1.1" xmlns="http://www.w3.org/2000/svg" xmlns:xlink="http://www.w3.org/1999/xlink">
    <title>Combined Shape</title>
    <g id="Page-1" stroke="none" stroke-width="1" fill="none" fill-rule="evenodd">
        <g id="Artboard" transform="translate(-299.000000, -255.000000)" fill="#000000" fill-rule="nonzero">
            <path d="M334,255.5 C353.053824,255.5 368.5,270.946176 368.5,290 C368.5,298.446725 365.464478,306.184465 360.424808,312.181848 L384.657035,336.414394 C385.828608,337.585967 385.828608,339.485462 384.657035,340.657035 C383.532325,341.781745 381.736762,341.826733 380.558384,340.792 L380.414394,340.657035 L356.181848,316.424808 C350.184465,321.464478 342.446725,324.5 334,324.5 C314.946176,324.5 299.5,309.053824 299.5,290 C299.5,270.946176 314.946176,255.5 334,255.5 Z M334,260.5 C317.7076,260.5 304.5,273.7076 304.5,290 C304.5,306.2924 317.7076,319.5 334,319.5 C350.2924,319.5 363.5,306.2924 363.5,290 C363.5,273.7076 350.2924,260.5 334,260.5 Z" id="Combined-Shape"></path>
        </g>
    </g>
</svg>